/* XPM */
static char *_c9ebea5a1e147edfced256f9673f601[] = {
/* columns rows colors chars-per-pixel */
"64 64 15 1 ",
"  c #0C1D2A",
". c #0D1D2A",
"X c #0C1D2B",
"o c #0D1D2B",
"O c #0E1D2B",
"+ c #0C1E2A",
"@ c #0D1E2A",
"# c #0C1E2B",
"$ c #0D1E2B",
"% c #0D1F2B",
"& c #0E1E2A",
"* c #0E1E2B",
"= c #0E1D2C",
"- c #0C1E2C",
"; c None",
/* pixels */
";;;;;;;;;;;;;;;;;;;;;;;;;;;;;;;;;;;;;;;;;;;;;;;;;;;;;;;;;;;;;;;;",
";;;;;;;;;;;;;;;;;;;;;;;;;;;;;;;;;;;;;;;;;;;;;;;;;;;;;;;;;;;;;;;;",
";;;;;;;;;;;;;;;;;;;;;;;;;;;;;;;;;;;;;;;;;;;;;;;;;;;;;;;;;;;;;;;;",
";;;;;;;;;;;;;;;;;;;;;;;;;;;;;;;;;;;;;;;;;;;;;;;;;;;;;;;;;;;;;;;;",
";;;;;;;;;;;;;;;;;;;;;;;;;;;;;;;;;;;;;;;;;;;;;;;;;;;;;;;;;;;;;;;;",
";;;;;;;;;;;;;;;;;;;;;;;;;;;;;;;;;;;;;;;;;;;;;;;;;;;;;;;;;;;;;;;;",
";;;;;;;;;;;;;;;;;;;;;;;;;;;;;;;;;;;;;;;;;;;;;;;;;;;;;;;;;;;;;;;;",
";;;;;;;;;;;;;;;;;;;;;;;;;;;;;;;;;;;;;;;;;;;;;;;;;;;;;;;;;;;;;;;;",
";;;;;;;;;;;;;;;;;;;;;;;;;;;;;;;;;;;;;;;;;;;;;;;;;;;;;;;;;;;;;;;;",
";;;;;;;;;;;;;;;;;;;;;;;;;;;;;;;;;;;;;;;;;;;;;;;;;;;;;;;;;;;;;;;;",
";;;;;;;;;;;;;;;;;;;;;;;;;;;;;;;;;;;;;;;;;;;;;;;;;;;;;;;;;;;;;;;;",
";;;;;;;;;;;;;;;;;;;;;;;;;;;XXX##X*X*;;;;;;;;;;;;;;;;;;;;;;;;;;;;",
";;;;;;;;;;;;;;;;;;;;;;;;**%#%#X%******XX;;;;;;;;;;;;;;;;;;;;;;;;",
";;;;;;;;;;;;;;;;;;;;;;X#***X********%****X;;;;;;;;;;;;;;;;;;;;;;",
";;;;;;;;;;;;;;;;;;;;XX*%%**%X****XXX#XX****X;;;;;;;;;;;;;;;;;;;;",
";;;;;;;;;;;;;;;;;;X****X#*X#X#%*;;;;;;;;%X%#*;;;;;;;;;;;;;;;;;;;",
";;;;;;;;;;;;;;;;;*X**X*****XX;;;;;;;;;;;;;;X%**;;;;;;;;;;;;;;;;;",
";;;;;;;;;;;;;;;;**#%%##%*X#;;;;;;;;;;;;;;;;;;***;;;;;;;;;;;;;;;;",
";;;;;;;;;;;;;;;X*#X*X#X*X;;;;;;;;;;;;;;;;;;;;;;**;;;;;;;;;;;;;;;",
";;;;;;;;;;;;;;XX*%***%**;;;;;;;;;;;;;;;;;;;;;;;;*;;;;;;;;;;;;;;;",
";;;;;;;;;;;;;;X#X#***#X;;;;;;;;;;;;;;;;;;;;;;;;;;X;;;;;;;;;;;;;;",
";;;;;;;;;;;;;**%*%**%#;;;;;;;;;;;;;;;;;;;;;;;;;;;;;;;;;;;;;;;;;;",
";;;;;;;;;;;;*****%**X;;;;;;;;;;;;;;;;;;;;;;;;;;;;;;;;;;;;;;;;;;;",
";;;;;;;;;;;;#%X#X#XX;;;;;;;;;;;;;;;;;;;;;;;;;;;;;;;;;;;;;;;;;;;;",
";;;;;;;;;;;X%#X%*#XX;;;;*%#X#X*#XX%#;;;;;;;;;;;;;;;;;;;;;;;;;;;;",
";;;;;;;;;;;X*****%*;;;;;****%%*%****XX;;;;;;;;;;;;;;;;;;;;;;;;;;",
";;;;;;;;;;;X#XX#**#;;;;;#%%#*******X**;;;;;;;;;;;;;X*;;;;;;;;;;;",
";;;;;;;;;;XX%**%*X;;;;;;X**X*X;;X*%#*XX;;;;;;;;;;;;***;;;;;;;;;;",
";;;;;;;;;;X**%***%;;;;;;**X**#;;;#X#*#X;;;;;;;;;;;;**%;;;;;;;;;;",
";;;;;;;;;;**X#X###;;;;;;#%#%%*;;;**%*%*;;;;;;;;;;;;%*XX;;;;;;;;;",
";;;;;;;;;;***#X%X*;;;;;;X%#*#*;;;X****X;;;;;;;;;;;;X%#*;;;;;;;;;",
";;;;;;;;;;***%**X;;;;;;;**X*XX;;X*X#%*;;;;;;;;;X;;;;***;;;;;;;;;",
";;;;;;;;;;*X#%X#X;;;;;;;%*#%**#%***%#*;;;;;;;X%X;;;;X**;;;;;;;;;",
";;;;;;;;;#*#X**%*;;;;;;;#*X*%*X****XX;;;;;;;****;;;;**%;;;;;;;;;",
";;;;;;;;;X*%*****;;;;;;;X*X*#X**%X*#%**;;;;;X***;;;;XX*;;;;;;;;;",
";;;;;;;;;;*X#%X#*;;;;;;;%*#%**;;##*%#**;;;;;;X**;;;;%**;;;;;;;;;",
";;;;;;;;;;**%#X%*#;;;;;;#*%#%%;;;#*XX%#X;;;;;;XX;;;;X*X;;;;;;;;;",
";;;;;;;;;;%******%;;;;;;X**X%*;;;%*#***X;;;;;;;X;;;;**X;;;;;;;;;",
";;;;;;;;;;#X#XX#*X;;;;;;%**%**;;;X*%%***;;;;;;;;;;;#*X%;;;;;;;;;",
";;;;;;;;;;*X%**%*X;;;;;;#*X#*X;;;X*X#*X#;;;;;;;;;;;*%#;;;;;;;;;;",
";;;;;;;;;;;**%*****;;;;;***X*X++***%***X;;;;;;;;;;;*XX;;;;;;;;;;",
";;;;;;;;;;;*X#X#%**;;;;;**%#******X#**%;;;;;;;;;;;;X*;;;;;;;;;;;",
";;;;;;;;;;;**#X%#*%X;;;;***X*XX*#%**XX;;;;;;;;;;;;;;*;;;;;;;;;;;",
";;;;;;;;;;;;*%**X*#XX;;;XXXX#+X*#**;;;;;;;;;;;;;;;;;;;;;;;;;;;;;",
";;;;;;;;;;;;;X%*X#*XX;;;;;;;;;;;;;;;;;;;;;;;;;;;;;;;;;;;;;;;;;;;",
";;;;;;;;;;;;;X#**%*#*X;;;;;;;;;;;;;;;;;;;;;;;;;;;;;;;;;;;;;;;;;;",
";;;;;;;;;;;;;;X**%*%**X;;;;;;;;;;;;;;;;;;;;;;;;;;X;;;;;;;;;;;;;;",
";;;;;;;;;;;;;;;*X#****&X;;;;;;;;;;;;;;;;;;;;;;;;*;;;;;;;;;;;;;;;",
";;;;;;;;;;;;;;;;***X**X*X%;;;;;;;;;;;;;;;;;;;;#*;;;;;;;;;;;;;;;;",
";;;;;;;;;;;;;;;;;*%##%#%**X;;;;;;;;;;;;;;;;;;X#;;;;;;;;;;;;;;;;;",
";;;;;;;;;;;;;;;;;;**X%#*X#**%;;;;;;;;;;;;;#XXX;;;;;;;;;;;;;;;;;;",
";;;;;;;;;;;;;;;;;;;***X**%******XX;;;;XXX***X;;;;;;;;;;;;;;;;;;;",
";;;;;;;;;;;;;;;;;;;;;****%**%##X**%##X*#*X*;;;;;;;;;;;;;;;;;;;;;",
";;;;;;;;;;;;;;;;;;;;;;;XX#***X%****X%**%#;;;;;;;;;;;;;;;;;;;;;;;",
";;;;;;;;;;;;;;;;;;;;;;;;;;XX*****X*%**;;;;;;;;;;;;;;;;;;;;;;;;;;",
";;;;;;;;;;;;;;;;;;;;;;;;;;;;;;;-;;;;;;;;;;;;;;;;;;;;;;;;;;;;;;;;",
";;;;;;;;;;;;;;;;;;;;;;;;;;;;;;;;;;;;;;;;;;;;;;;;;;;;;;;;;;;;;;;;",
";;;;;;;;;;;;;;;;;;;;;;;;;;;;;;;;;;;;;;;;;;;;;;;;;;;;;;;;;;;;;;;;",
";;;;;;;;;;;;;;;;;;;;;;;;;;;;;;;;;;;;;;;;;;;;;;;;;;;;;;;;;;;;;;;;",
";;;;;;;;;;;;;;;;;;;;;;;;;;;;;;;;;;;;;;;;;;;;;;;;;;;;;;;;;;;;;;;;",
";;;;;;;;;;;;;;;;;;;;;;;;;;;;;;;;;;;;;;;;;;;;;;;;;;;;;;;;;;;;;;;;",
";;;;;;;;;;;;;;;;;;;;;;;;;;;;;;;;;;;;;;;;;;;;;;;;;;;;;;;;;;;;;;;;",
";;;;;;;;;;;;;;;;;;;;;;;;;;;;;;;;;;;;;;;;;;;;;;;;;;;;;;;;;;;;;;;;",
";;;;;;;;;;;;;;;;;;;;;;;;;;;;;;;;;;;;;;;;;;;;;;;;;;;;;;;;;;;;;;;;"
};
