/* XPM */
static char *_96fa82f1b90491788e5072468704369[] = {
/* columns rows colors chars-per-pixel */
"32 32 12 1 ",
"  c #0D1D2A",
". c #0C1C2B",
"X c #0C1D2B",
"o c #0D1D2B",
"O c #0E1D2B",
"+ c #0C1E2A",
"@ c #0D1E2A",
"# c #0C1E2B",
"$ c #0D1E2B",
"% c #0E1E2A",
"& c #0E1E2B",
"* c None",
/* pixels */
"********************************",
"********************************",
"********************************",
"********************************",
"********************************",
"********************************",
"***********@$$$$$$$$$***********",
"**********$$$$$$$**@$$**********",
"********@$$$$@********@$********",
"*******$$$$$************$*******",
"*******$$$$*********************",
"******$$$$**********************",
"******$$$$**$$$$$$**************",
"*****@$$$***$$$$$$$******$$*****",
"*****$$$$***$$$*$$$$******$*****",
"*****@$$@***$$$*@$$*******$$****",
"*****$$$@***$$$$$$X***$$**$@****",
"*****$$$@***$$@@$$@@**$$**$$****",
"*****$$$$***$$#*$$$$***$**$@****",
"*****$$$$***$$$*X$$$*****$$*****",
"*****$$$$$**$$$$@$$@*****$$*****",
"******$$$$**$$$$$@$*************",
"******$$$$$*********************",
"*******$$$$$************@*******",
"********@$$$$**********$********",
"*********$$$$$$@****@$@*********",
"***********@$$$$$$$$$***********",
"**************$@@@**************",
"********************************",
"********************************",
"********************************",
"********************************"
};
