/* XPM */
static char *d4a394832a7f4c46c5fca84cf481b844[] = {
/* columns rows colors chars-per-pixel */
"16 16 10 1 ",
"  c #0D1D2A",
". c #0C1D2B",
"X c #0D1D2B",
"o c #0E1D2B",
"O c #0C1E2A",
"+ c #0D1E2A",
"@ c #0C1E2B",
"# c #0D1E2B",
"$ c #0E1E2A",
"% c None",
/* pixels */
"%%%%%%%%%%%%%%%%",
"%%%%%%%%%%%%%%%%",
"%%%%%%%%%%%%%%%%",
"%%%%%##### %%%%%",
"%%%%##%%%%%%%%%%",
"%%%##%%%%%%%%%%%",
"%%%##%####%%%%%%",
"%%  %%#%##%%%#%%",
"%%##%%####%#%#%%",
"%% #%%#%##%%%#%%",
"%%%##%####%%%%%%",
"%%%@# %%%%%%%%%%",
"%%%% ##%%%% %%%%",
"%%%%%%####%%%%%%",
"%%%%%%%%%%%%%%%%",
"%%%%%%%%%%%%%%%%"
};
